# AST/ASF file generated using VICON BodyLanguage
# -----------------------------------------------
:version 1.10
:name VICON
:units
  mass 1.0
  length 0.45
  angle deg
:documentation
   .ast/.asf automatically generated from VICON data using
   VICON BodyBuilder and BodyLanguage model FoxedUp or BRILLIANT.MOD
:root
   order TX TY TZ RX RY RZ
   axis XYZ
   position 0 0 0  
   orientation 0 0 0 
:bonedata
  begin
     id 1 
     name lhipjoint
     direction 0.646657 -0.683706 0.338203 
     length 2.4948 
     axis 0 0 0  XYZ
  end
  begin
     id 2 
     name lfemur
     direction 0.34202 -0.939693 0  
     length 6.79491  
     axis 0 0 20  XYZ
    dof rx ry rz
    limits (-160.0 20.0)
           (-70.0 70.0)
           (-60.0 70.0)
  end
  begin
     id 3 
     name ltibia
     direction 0.34202 -0.939693 0   
     length 7.56807   
     axis 0 0 20   XYZ
    dof rx
    limits (-10.0 170.0)
  end
  begin
     id 4 
     name lfoot
     direction 0.0679796 -0.186772 0.980048   
     length 2.53018   
     axis -90 7.62852e-016 20   XYZ
    dof rx rz
    limits (-45.0 90.0)
           (-70.0 20.0)
  end
  begin
     id 5 
     name ltoes
     direction 1.53625e-011 -4.21881e-011 1   
     length 1.26912   
     axis -90 7.62852e-016 20   XYZ
    dof rx
    limits (-90.0 20.0)
  end
  begin
     id 6 
     name rhipjoint
     direction -0.618868 -0.704065 0.348274   
     length 2.42265  
     axis 0 0 0  XYZ 
  end
  begin
     id 7 
     name rfemur
     direction -0.34202 -0.939693 0   
     length 6.73814   
     axis 0 0 -20   XYZ
    dof rx ry rz
    limits (-160.0 20.0)
           (-70.0 70.0)
           (-70.0 60.0)
  end
  begin
     id 8 
     name rtibia
     direction -0.34202 -0.939693 0   
     length 7.66799   
     axis 0 0 -20   XYZ
    dof rx
    limits (-10.0 170.0)
 end
 begin
     id 9 
     name rfoot
     direction -0.0727352 -0.199838 0.977125   
     length 2.57224  
     axis -90 -7.62852e-016 -20   XYZ
    dof rx rz
    limits (-45.0 90.0)
           (-20.0 70.0)
  end
  begin
     id 10 
     name rtoes
     direction -1.53501e-011 -4.21858e-011 1   
     length 1.28858   
     axis -90 -7.62852e-016 -20   XYZ
    dof rx
    limits (-90.0 20.0)
  end
  begin
     id 11 
     name lowerback
     direction -0.0172471 0.995767 -0.0902851   
     length 2.20206   
     axis 0 0 0   XYZ
    dof rx ry rz
    limits (-20.0 45.0)
           (-30.0 30.0)
           (-30.0 30.0)
  end
  begin
     id 12 
     name upperback
     direction -0.000110737 0.999714 0.0239043   
     length 2.19523   
     axis 0 0 0   XYZ
    dof rx ry rz
    limits (-20.0 45.0)
           (-30.0 30.0)
           (-30.0 30.0)
  end
  begin
     id 13 
     name thorax
     direction 0.00704869 0.997783 0.0661741   
     length 2.21977   
     axis 0 0 0   XYZ
    dof rx ry rz
    limits (-20.0 45.0)
           (-30.0 30.0)
           (-30.0 30.0)
  end
  begin
     id 14 
     name lowerneck
     direction -0.00407501 0.995527 0.0943846   
     length 1.83142   
     axis 0 0 0   XYZ
    dof rx ry rz
    limits (-20.0 45.0)
           (-30.0 30.0)
           (-30.0 30.0)
  end
  begin
     id 15 
     name upperneck
     direction 0.0640586 0.986486 -0.150807   
     length 1.84616   
     axis 0 0 0   XYZ
    dof rx ry rz
    limits (-20.0 45.0)
           (-30.0 30.0)
           (-30.0 30.0)
  end
  begin
     id 16
     name head
     direction 0.0188017 0.99791 -0.0618239  
     length 1.85932  
     axis 0 0 0   XYZ
    dof rx ry rz
    limits (-20.0 45.0)
           (-30.0 30.0)
           (-30.0 30.0)
  end
  begin
     id 17 
     name lclavicle
     direction 0.976074 0.206905 0.066852  
     length 3.81043  
     axis 0 0 0   XYZ
    dof ry rz
    limits (-20.0 10.0)
           (0.0 20.0)
  end
  begin
     id 18 
     name lhumerus
     direction 1 -4.48971e-011 1.86916e-027   
     length 5.37587   
     axis 180 -30 -90   XYZ
    dof rx ry rz
    limits (-60.0 90.0)
           (-90.0 90.0)
           (-90.0 90.0)
  end
  begin
     id 19
     name lradius
     direction 1 -4.48968e-011 1.69187e-027   
     length 3.35977   
     axis 180 -30 -90   XYZ
    dof rx
    limits (-10.0 170.0)
  end
  begin
     id 20
     name lwrist
     direction 1 -4.48968e-011 5.8978e-027   
     length 1.67988   
     axis -3.27506e-015 90 90   XYZ
    dof ry
    limits (-180.0 0.0)
 end
  begin
     id 21 
     name lhand
     direction 1 -4.49028e-011 1.18071e-026   
     length 0.561859   
     axis -7.52654e-015 90 90   XYZ
    dof rx rz
    limits (-90.0 90.0)
           (-45.0 45.0)
  end
  begin
     id 22 
     name lfingers
     direction 1 -4.48927e-011 2.35758e-026   
     length 0.452985   
     axis -1.50534e-014 90 90   XYZ
    dof rx
    limits (0.0 90.0)
  end
  begin
     id 23
     name lthumb
     direction 0.707107 -6.34898e-011 0.707107   
     length 0.650399   
     axis -90 45 5.69224e-014   XYZ
    dof rx rz
    limits (-45.0 45.0)
           (-45.0 45.0)
  end
  begin
     id 24 
     name rclavicle
     direction -0.988403 0.151789 0.00439714   
     length 3.6942  
     axis 0 0 0   XYZ 
    dof ry rz
    limits (-10.0 20.0)
           (-20.0 0.0)
  end
  begin
     id 25 
     name rhumerus
     direction -1 -4.48978e-011 1.62495e-027  
     length 5.22819   
     axis 180 30 90   XYZ
    dof rx ry rz
    limits (-90.0 60.0)
           (-90.0 90.0)
           (-90.0 90.0)
  end
  begin
     id 26 
     name rradius
     direction -1 -4.48961e-011 3.47796e-027   
     length 3.40764   
     axis 180 30 90   XYZ
    dof rx
    limits (-10.0 170.0)
  end
  begin
     id 27 
     name rwrist
     direction -1 -4.48949e-011 5.89602e-027   
     length 1.70382   
     axis -3.27506e-015 -90 -90   XYZ
    dof ry
    limits (-180.0 0.0)
  end
  begin
     id 28
     name rhand
     direction -1 -4.48977e-011 1.17973e-026   
     length 0.583255   
     axis -7.52654e-015 -90 -90   XYZ
    dof rx rz
    limits (-90.0 90.0)
           (-45.0 45.0)
  end
  begin
     id 29
     name rfingers
     direction -1 -4.49099e-011 2.36408e-026   
     length 0.470235   
     axis -1.50534e-014 -90 -90   XYZ
    dof rx
    limits (0.0 90.0)
  end
  begin
     id 30
     name rthumb
     direction -0.707107 -6.35011e-011 0.707107   
     length 0.675167   
     axis -90 -45 -5.69224e-014   XYZ
    dof rx rz
    limits (-45.0 45.0)
           (-45.0 45.0)
  end
:hierarchy
  begin
    root lhipjoint rhipjoint lowerback
    lhipjoint lfemur
    lfemur ltibia
    ltibia lfoot
    lfoot ltoes
    rhipjoint rfemur
    rfemur rtibia
    rtibia rfoot
    rfoot rtoes
    lowerback upperback
    upperback thorax
    thorax lowerneck lclavicle rclavicle
    lowerneck upperneck
    upperneck head
    lclavicle lhumerus
    lhumerus lradius
    lradius lwrist
    lwrist lhand lthumb
    lhand lfingers
    rclavicle rhumerus
    rhumerus rradius
    rradius rwrist
    rwrist rhand rthumb
    rhand rfingers
  end

#!OML:ASF G:\JayActor3\Patient Classification 1\Patient 1\Session 2\male.ASF
:FULLY-SPECIFIED
:DEGREES
250
root 49.621 14.9283 -6.7959 -30.6917 -87.1766 29.2752
lowerback 10.0529 0.272887 -2.48489
upperback 2.78696 -0.0139508 -0.992582
thorax -2.73773 -0.038536 0.373746
lowerneck -13.0516 -2.27729 -2.89994
upperneck -9.64108 -2.8739 7.02444
head -0.705863 -1.54476 2.65942
rclavicle -7.90169e-015 -4.37326e-015
rhumerus -16.9008 30.4923 -76.3253
rradius 78.7419
rwrist -16.5256
rhand -9.05149 7.77962
rfingers 7.12502
rthumb 16.8969 -21.5053
lclavicle -7.90169e-015 -4.37326e-015
lhumerus -11.3773 -21.3731 85.4895
lradius 84.3193
lwrist 29.7565
lhand -19.0593 17.8436
lfingers 7.12502
lthumb 7.24789 47.6994
rfemur -23.9874 -1.56149 16.1839
rtibia 66.8272
rfoot -36.9476 -10.7326
rtoes 1.37725
lfemur -21.7367 8.20951 -21.4635
ltibia 61.4174
lfoot -27.939 8.06479
ltoes -21.7034
251
root 49.5449 15.0952 -6.78368 -30.0786 -87.24 28.6574
lowerback 9.54865 0.18435 -2.46048
upperback 2.48886 -0.101498 -0.911359
thorax -2.7663 -0.0737552 0.454399
lowerneck -13.0853 -2.20928 -2.89049
upperneck -9.13686 -2.7903 6.7968
head -0.544887 -1.48528 2.57767
rclavicle 1.78906e-015 8.94531e-015
rhumerus -15.5682 32.5567 -73.6218
rradius 81.7165
rwrist -16.5067
rhand -7.62872 7.82366
rfingers 7.12502
rthumb 18.2661 -21.3387
lclavicle 1.78906e-015 8.94531e-015
lhumerus -9.87314 -22.8244 83.4489
lradius 86.9142
lwrist 30.5342
lhand -18.3232 17.6779
lfingers 7.12502
lthumb 7.95838 47.5081
rfemur -22.5087 -1.49123 16.2038
rtibia 64.5482
rfoot -36.0247 -10.4378
rtoes 2.25096
lfemur -20.3291 9.04568 -21.1156
ltibia 59.2389
lfoot -26.5268 6.81212
ltoes -22.1071
252
root 49.4585 15.2951 -6.76835 -31.9053 -87.4108 30.5007
lowerback 8.93928 0.130422 -2.43906
upperback 2.18428 -0.142072 -0.857931
thorax -2.74346 -0.0863848 0.501609
lowerneck -13.1777 -2.13102 -2.87124
upperneck -8.56358 -2.69479 6.53745
head -0.353709 -1.41875 2.48425
rclavicle -2.70844e-015 1.98785e-016
rhumerus -14.2189 34.6159 -70.8626
rradius 84.4968
rwrist -16.3929
rhand -6.30307 7.91915
rfingers 7.12502
rthumb 19.541 -21.1188
lclavicle -2.70844e-015 1.98785e-016
lhumerus -8.57258 -24.1019 81.2204
lradius 89.4062
lwrist 31.2135
lhand -17.4455 17.5052
lfingers 7.12502
lthumb 8.80542 47.3015
rfemur -20.8388 -1.25586 16.1331
rtibia 61.896
rfoot -34.7236 -10.0251
rtoes 2.79322
lfemur -18.6579 10.041 -20.7566
ltibia 56.6385
lfoot -24.7502 5.31874
ltoes -22.6858
253
root 49.3635 15.5229 -6.74897 -36.5409 -87.6336 35.2058
lowerback 8.2245 0.0966679 -2.40731
upperback 1.85396 -0.154019 -0.84074
thorax -2.68836 -0.0852228 0.501834
lowerneck -13.3503 -2.03531 -2.85107
upperneck -7.87292 -2.57575 6.26339
head -0.113055 -1.33792 2.38736
rclavicle 7.03201e-015 5.76476e-015
rhumerus -12.876 36.6634 -68.084
rradius 87.0749
rwrist -16.277
rhand -5.08492 8.06544
rfingers 7.12502
rthumb 20.7118 -20.8493
lclavicle 7.03201e-015 5.76476e-015
lhumerus -7.50325 -25.2462 78.847
lradius 91.7962
lwrist 31.6726
lhand -16.4819 17.2946
lfingers 7.12502
lthumb 9.7352 47.0496
rfemur -19.0601 -0.842044 15.9565
rtibia 58.9126
rfoot -32.925 -9.54576
rtoes 2.95664
lfemur -16.7862 11.014 -20.4407
ltibia 53.6051
lfoot -22.4983 3.6706
ltoes -23.4035
254
root 49.2631 15.7726 -6.72581 -43.8198 -87.8277 42.6007
lowerback 7.45049 0.0637843 -2.35403
upperback 1.50045 -0.16433 -0.859512
thorax -2.62302 -0.083931 0.452443
lowerneck -13.6044 -1.91738 -2.8045
upperneck -7.08027 -2.43003 5.95429
head 0.17193 -1.24315 2.27711
rclavicle 1.11816e-015 2.78299e-015
rhumerus -11.5248 38.6846 -65.2888
rradius 89.4596
rwrist -16.2424
rhand -4.05089 8.19289
rfingers 7.12502
rthumb 21.7051 -20.6103
lclavicle 1.11816e-015 2.78299e-015
lhumerus -6.63807 -26.2847 76.3604
lradius 94.0784
lwrist 31.8713
lhand -15.5086 17.0408
lfingers 7.12502
lthumb 10.6742 46.7496
rfemur -17.2984 -0.255311 15.6902
rtibia 55.8405
rfoot -30.662 -9.07257
rtoes 2.83131
lfemur -14.8553 11.7847 -20.2085
ltibia 50.3556
lfoot -19.7779 2.00612
ltoes -24.1495
255
root 49.1603 16.0388 -6.69983 -52.8975 -87.9516 51.852
lowerback 6.63379 0.0284918 -2.27072
upperback 1.1264 -0.177607 -0.901597
thorax -2.55365 -0.0850881 0.362283
lowerneck -13.9349 -1.77914 -2.73956
upperneck -6.21493 -2.25825 5.62294
head 0.492492 -1.13595 2.16056
rclavicle -1.88845e-015 -1.41137e-014
rhumerus -10.1557 40.6527 -62.4483
rradius 91.6766
rwrist -16.3395
rhand -3.2757 8.23885
rfingers 7.12502
rthumb 22.4493 -20.4764
lclavicle -1.88845e-015 -1.41137e-014
lhumerus -5.94986 -27.2407 73.8007
lradius 96.261
lwrist 31.8377
lhand -14.557 16.7487
lfingers 7.12502
lthumb 11.592 46.4081
rfemur -15.6801 0.5047 15.3789
rtibia 52.8439
rfoot -27.9583 -8.70799
rtoes 2.73461
lfemur -12.9958 12.2523 -20.0796
ltibia 47.0333
lfoot -16.5667 0.475081
ltoes -24.6064
256
root 49.0581 16.3173 -6.67222 -62.0678 -87.9991 61.2814
lowerback 5.77976 -0.0115356 -2.15577
upperback 0.736733 -0.197252 -0.946634
thorax -2.47807 -0.0906433 0.251688
lowerneck -14.3747 -1.62696 -2.65372
upperneck -5.2953 -2.06908 5.27316
head 0.850374 -1.0216 2.03881
rclavicle 2.31087e-015 3.97569e-015
rhumerus -8.74422 42.5214 -59.5132
rradius 93.7536
rwrist -16.5813
rhand -2.78329 8.18823
rfingers 7.12502
rthumb 22.9219 -20.4692
lclavicle 2.31087e-015 3.97569e-015
lhumerus -5.38429 -28.1132 71.204
lradius 98.3514
lwrist 31.6615
lhand -13.6655 16.4298
lfingers 7.12502
lthumb 12.4517 46.0389
rfemur -14.3383 1.39302 15.0719
rtibia 50.0617
rfoot -24.8928 -8.55069
rtoes 3.21581
lfemur -11.3459 12.3774 -20.0589
ltibia 43.7666
lfoot -12.8529 -0.693836
ltoes -24.3912
257
root 48.9589 16.606 -6.64422 -69.7819 -88.02 69.3465
lowerback 4.9049 -0.0529478 -1.98191
upperback 0.340206 -0.218376 -0.982393
thorax -2.39677 -0.098664 0.117441
lowerneck -14.9124 -1.46617 -2.5262
upperneck -4.36986 -1.87282 4.91545
head 1.2302 -0.907065 1.91126
rclavicle -3.62161e-015 -2.68359e-014
rhumerus -7.29057 44.2229 -56.4693
rradius 95.7205
rwrist -16.9693
rhand -2.47166 8.06126
rfingers 7.12502
rthumb 23.2209 -20.5588
lclavicle -3.62161e-015 -2.68359e-014
lhumerus -4.89223 -28.9 68.5887
lradius 100.359
lwrist 31.4534
lhand -12.832 16.0748
lfingers 7.12502
lthumb 13.2551 45.6333
rfemur -13.3483 2.32827 14.8283
rtibia 47.5775
rfoot -21.5785 -8.71926
rtoes 4.84487
lfemur -9.99757 12.2031 -20.1062
ltibia 40.66
lfoot -8.67213 -1.1799
ltoes -23.4485
258
root 48.8639 16.9029 -6.61711 -75.5725 -88.061 75.5808
lowerback 4.02237 -0.0978032 -1.74737
upperback -0.0582253 -0.245421 -1.00255
thorax -2.3122 -0.111588 -0.0347506
lowerneck -15.5263 -1.29684 -2.33666
upperneck -3.47791 -1.67412 4.56074
head 1.61708 -0.795516 1.77697
rclavicle -1.04983e-015 8.94531e-015
rhumerus -5.83046 45.7101 -53.331
rradius 97.6033
rwrist -17.4738
rhand -2.19436 8.00886
rfingers 7.12502
rthumb 23.487 -20.5774
lclavicle -1.04983e-015 8.94531e-015
lhumerus -4.4514 -29.5822 65.9676
lradius 102.3
lwrist 31.2987
lhand -12.0477 15.6986
lfingers 7.12502
lthumb 14.011 45.2064
rfemur -12.7469 3.20219 14.6731
rtibia 45.4341
rfoot -18.1832 -9.34822
rtoes 8.13509
lfemur -8.99572 11.798 -20.1778
ltibia 37.7876
lfoot -4.15953 -0.764839
ltoes -21.312
259
root 48.7741 17.2047 -6.59202 -79.5539 -88.1684 80.082
lowerback 3.16 -0.153783 -1.45493
upperback -0.457684 -0.290599 -0.993101
thorax -2.23929 -0.135458 -0.188505
lowerneck -16.1941 -1.11618 -2.09981
upperneck -2.62246 -1.46947 4.23989
head 2.00789 -0.68366 1.64827
rclavicle -1.61513e-015 2.5842e-015
rhumerus -4.38068 47.0013 -50.1066
rradius 99.4289
rwrist -18.1038
rhand -1.94032 8.0422
rfingers 7.12502
rthumb 23.7306 -20.5127
lclavicle -1.61513e-015 2.5842e-015
lhumerus -4.07292 -30.1306 63.3674
lradius 104.181
lwrist 31.2298
lhand -11.3158 15.2978
lfingers 7.12502
lthumb 14.7162 44.7555
rfemur -12.5224 3.91292 14.6286
rtibia 43.6381
rfoot -14.8943 -10.602
rtoes 13.0176
lfemur -8.33655 11.2354 -20.2141
ltibia 35.2144
lfoot 0.430704 0.685943
ltoes -17.6499
